<?xml version="1.0" encoding="utf-8"?>
<!-- Generator: Adobe Illustrator 27.2.0, SVG Export Plug-In . SVG Version: 6.00 Build 0)  -->
<svg version="1.1" id="Layer_1" xmlns="http://www.w3.org/2000/svg" xmlns:xlink="http://www.w3.org/1999/xlink" x="0px" y="0px"
	 viewBox="0 0 482.9 130" style="enable-background:new 0 0 482.9 130;" xml:space="preserve">
<style type="text/css">
	.st0{fill:#FFFFFF;stroke:#374E7E;stroke-width:4;stroke-miterlimit:10;}
	.st1{fill:#FFFFFF;stroke:#374E7E;stroke-width:2;stroke-miterlimit:10;}
	.st2{fill:none;stroke:#374E7E;stroke-width:2;stroke-miterlimit:10;}
	.st3{fill:none;stroke:#374E7E;stroke-width:2;stroke-linecap:round;stroke-miterlimit:10;}
	.st4{fill:#364F7F;}
	.st5{font-family:'MyanmarMN';}
	.st6{font-size:87.3744px;}
	.st7{font-family:'Cochin';}
	.st8{font-size:20px;}
</style>
<g>
	<path class="st0" d="M18.6,52.6c-1,4-1.6,8.1-1.6,12.4c0,27.3,22.1,49.4,49.4,49.4s49.4-22.1,49.4-49.4S93.8,15.5,66.5,15.5
		c-4.3,0-8.4,0.5-12.4,1.6"/>
	<path class="st0" d="M99,73.4c0.7-2.7,1.1-5.5,1.1-8.4c0-18.6-15.1-33.6-33.6-33.6S32.8,46.4,32.8,65s15.1,33.6,33.6,33.6
		c2.9,0,5.7-0.4,8.4-1.1"/>
</g>
<path class="st1" d="M83.6,74.9H49.3c-1.4,0-2.5-1.1-2.5-2.5V50.7c0-1.4,1.1-2.5,2.5-2.5h34.4c1.4,0,2.5,1.1,2.5,2.5v21.7
	C86.2,73.8,85,74.9,83.6,74.9z"/>
<line class="st2" x1="46.7" y1="68.2" x2="86.2" y2="68.2"/>
<rect x="51.4" y="53.2" class="st2" width="11.3" height="8.2"/>
<line class="st2" x1="65" y1="53.7" x2="82.8" y2="53.7"/>
<line class="st2" x1="65" y1="57.3" x2="82.8" y2="57.3"/>
<line class="st2" x1="65" y1="60.8" x2="82.8" y2="60.8"/>
<line class="st2" x1="50.4" y1="64.3" x2="82.8" y2="64.3"/>
<line class="st2" x1="66.4" y1="74.9" x2="66.4" y2="81.8"/>
<line class="st3" x1="56.8" y1="81.8" x2="75.9" y2="81.8"/>
<text transform="matrix(0.7554 0 0 1 134.2004 82.0022)" class="st4 st5 st6">WEBMADE</text>
<text transform="matrix(1 0 0 1 201.0002 110.3105)" class="st4 st7 st8">You Think We Create</text>
</svg>
