<?xml version="1.0" encoding="utf-8"?>
<!-- Generator: Adobe Illustrator 27.2.0, SVG Export Plug-In . SVG Version: 6.00 Build 0)  -->
<svg version="1.1" id="Layer_1" xmlns="http://www.w3.org/2000/svg" xmlns:xlink="http://www.w3.org/1999/xlink" x="0px" y="0px"
	 viewBox="0 0 125.2 102.1" style="enable-background:new 0 0 125.2 102.1;" xml:space="preserve">
<style type="text/css">
	.st0{fill:none;stroke:#000000;stroke-width:2;stroke-miterlimit:10;}
</style>
<g id="a">
</g>
<g id="b">
	<g id="c">
		<path id="d" d="M50.4,65.3c0,0-9.4,7.2-18.4,5.1c0,0,4.3,3.5,12.1,5c0,0,7.2,1.4,14.1,0c5.5-1.5,9.6-2.2,17.5-8.9
			c7.5-7.2,10.2-18.2,10.2-18.2s1.3-4.7,1-9.8c1.4-1,5-4.5,6.3-6.4c0,0-4.6,1.9-7,1.9c0,0,4.4-3.1,5.3-6.8c-1.4,0.7-5.1,2.5-7.9,2.9
			c0,0-4-5.1-12.1-3.7c0,0-11.3,2.7-9.5,15.1l0,0.2c0,0-13.8,1.1-26.1-13.2c0,0-5.6,10.1,4,16.8c0,0-4,0.1-5.7-1.5
			c0,0-0.6,6.3,5.4,10.5c0,0,2.1,1.6,4.5,1.9c0,0-1.8,0.8-5.6,0.3C39.4,58,41.7,64.3,50.4,65.3L50.4,65.3z"/>
	</g>
</g>
<circle class="st0" cx="62.6" cy="51" r="40"/>
</svg>
